<?xml version="1.0" encoding="utf-8"?>
<!-- Generator: Adobe Illustrator 26.5.0, SVG Export Plug-In . SVG Version: 6.00 Build 0)  -->
<svg version="1.1" id="Layer_1" xmlns="http://www.w3.org/2000/svg" xmlns:xlink="http://www.w3.org/1999/xlink" x="0px" y="0px"
	 viewBox="0 0 20 20" style="enable-background:new 0 0 20 20;" xml:space="preserve">
<style type="text/css">
	.st0{fill:#FFFFFF;}
</style>
<g>
	<path class="st0" d="M0.52,16.89l2.38,2.38c0.54,0.46,1.22,0.7,1.9,0.7c0.29,0,0.59-0.04,0.87-0.14l0.06-0.01
		c3.39-1.32,6.29-3.18,8.62-5.51c3.46-3.47,5.01-7.19,5.51-8.62l0.01-0.04l0-0.02c0.31-0.9,0.08-1.89-0.58-2.58L19.2,2.93
		l-2.47-2.51c-0.65-0.53-1.7-0.55-2.41,0.02l-0.06,0.03l-3.24,3.33l0.03,0.03c-0.27,0.31-0.42,0.7-0.43,1.12
		c-0.01,0.49,0.18,0.97,0.53,1.31l1.42,1.42c-0.52,1.14-1.19,2.12-2.01,2.9c-0.83,0.8-1.85,1.5-2.93,2.04L6.21,11.2
		c-0.7-0.69-1.91-0.69-2.61,0l-0.04,0.07l-3.04,3.04C-0.17,15-0.17,16.21,0.52,16.89z M12.47,4.97L12.47,4.97l3.02-3.09
		c0.02-0.01,0.03-0.02,0.04-0.02c0,0,0.02,0.01,0.05,0.03l2.32,2.37c0.23,0.19,0.28,0.58,0.2,0.8c-0.36,1.04-1.79,4.67-5.08,7.95
		c-2.12,2.12-4.78,3.82-7.93,5.05c-0.37,0.12-0.68,0.07-0.98-0.18L1.84,15.6l3.06-3.06l2.32,2.32l0.58-0.26
		c0.08-0.04,2.11-0.9,3.86-2.51l0.16-0.14c1.84-1.75,2.7-4.03,2.74-4.13l0.2-0.58l-0.44-0.41L12.47,4.97z"/>
</g>
</svg>
